# xmcd
# 
# Track frame offsets:
#     150
#     21148
#     40282
#     56389
#     71434
#     90304
# 
# Disc length: 1546
# 
# Revision: 1
# Processed by: cddbd v1.5.2PL0 Copyright (c) Steve Scherf et al.
# Submitted via: fre:ac v1.1beta1pre5
# 
DISCID=40060806
DTITLE=Black Stone Cherry - Black To Blues 2
DYEAR=2019
DGENRE=Blues
TTITLE0=Big Legged Woman
TTITLE1=Me and The Devil Blues
TTITLE2=All Your Love (I Miss Loving)
TTITLE3=Down In The Bottom
TTITLE4=Early One Morning
TTITLE5=Death Letter Blues
EXTD=
EXTT0=
EXTT1=
EXTT2=
EXTT3=
EXTT4=
EXTT5=
PLAYORDER=
